<?xml version="1.0" encoding="UTF-8" standalone="no"?>
<!DOCTYPE svg PUBLIC "-//W3C//DTD SVG 1.1//EN" "http://www.w3.org/Graphics/SVG/1.1/DTD/svg11.dtd">
<svg width="100%" height="100%" viewBox="0 0 151 75" version="1.1" xmlns="http://www.w3.org/2000/svg" xmlns:xlink="http://www.w3.org/1999/xlink" xml:space="preserve" xmlns:serif="http://www.serif.com/" style="fill-rule:evenodd;clip-rule:evenodd;stroke-linejoin:round;stroke-miterlimit:2;">
    <g transform="matrix(1,0,0,1,-2185.15,-52.9248)">
        <g id="Artboard2" transform="matrix(0.205043,0,0,0.234395,2185.15,-70.143)">
            <rect x="0" y="525.044" width="735.387" height="316.347" style="fill:none;"/>
            <clipPath id="_clip1">
                <rect x="0" y="525.044" width="735.387" height="316.347"/>
            </clipPath>
            <g clip-path="url(#_clip1)">
                <g transform="matrix(4.87703,-3.68111e-16,-1.65716e-15,4.2663,-231.51,326.728)">
                    <path d="M48.712,120.635C48.712,79.71 81.938,46.484 122.862,46.484C163.787,46.484 197.013,79.71 197.013,120.635L48.712,120.635ZM176.75,98.295C173.293,98.295 170.487,101.101 170.487,104.557C170.487,108.013 173.293,110.819 176.75,110.819C180.206,110.819 183.012,108.013 183.012,104.557C183.012,101.101 180.206,98.295 176.75,98.295Z" style="fill:rgb(80,80,80);"/>
                </g>
            </g>
        </g>
    </g>
</svg>
