<?xml version="1.0" encoding="UTF-8" standalone="no"?>
<!DOCTYPE svg PUBLIC "-//W3C//DTD SVG 1.1//EN" "http://www.w3.org/Graphics/SVG/1.1/DTD/svg11.dtd">
<svg width="100%" height="100%" viewBox="0 0 735 259" version="1.1" xmlns="http://www.w3.org/2000/svg" xmlns:xlink="http://www.w3.org/1999/xlink" xml:space="preserve" xmlns:serif="http://www.serif.com/" style="fill-rule:evenodd;clip-rule:evenodd;stroke-linejoin:round;stroke-miterlimit:2;">
    <g transform="matrix(1,0,0,1,-792.889,0)">
        <g id="Artboard2" transform="matrix(0.999378,0,0,0.817348,792.889,-429.144)">
            <rect x="0" y="525.044" width="735.387" height="316.347" style="fill:none;"/>
            <g transform="matrix(1.00062,-1.05565e-16,-3.40001e-16,1.22347,24.2571,601.841)">
                <path d="M48.712,120.635C48.712,79.71 81.938,46.484 122.862,46.484C163.787,46.484 197.013,79.71 197.013,120.635L48.712,120.635ZM176.75,98.295C173.293,98.295 170.487,101.101 170.487,104.557C170.487,108.013 173.293,110.819 176.75,110.819C180.206,110.819 183.012,108.013 183.012,104.557C183.012,101.101 180.206,98.295 176.75,98.295Z" style="fill:rgb(80,80,80);"/>
            </g>
            <g transform="matrix(12.8622,0,0,15.7267,-3480.56,-6442.87)">
                <path d="M293.669,457.486C293.133,457.486 292.723,457.38 292.439,457.168C292.155,456.956 291.945,456.718 291.809,456.454L291.593,456.454L291.593,457.318L290.081,457.318L290.081,448.918L291.593,448.918L291.593,452.23L291.809,452.23C291.969,451.902 292.203,451.648 292.511,451.468C292.819,451.288 293.205,451.198 293.669,451.198C294.141,451.198 294.573,451.318 294.965,451.558C295.357,451.798 295.673,452.144 295.913,452.596C296.153,453.048 296.273,453.594 296.273,454.234L296.273,454.45C296.273,455.098 296.157,455.648 295.925,456.1C295.693,456.552 295.381,456.896 294.989,457.132C294.597,457.368 294.157,457.486 293.669,457.486ZM293.177,456.046C293.649,456.046 294.031,455.898 294.323,455.602C294.615,455.306 294.761,454.91 294.761,454.414L294.761,454.27C294.761,453.774 294.615,453.378 294.323,453.082C294.031,452.786 293.649,452.638 293.177,452.638C292.713,452.638 292.333,452.788 292.037,453.088C291.741,453.388 291.593,453.782 291.593,454.27L291.593,454.414C291.593,454.902 291.741,455.296 292.037,455.596C292.333,455.896 292.713,456.046 293.177,456.046Z" style="fill:rgb(80,80,80);"/>
            </g>
            <g transform="matrix(12.8622,0,0,15.7267,-3485.36,-6442.87)">
                <path d="M296.789,457.318L296.789,455.878L298.877,455.878L298.877,450.358L296.861,450.358L296.861,448.918L300.389,448.918L300.389,455.878L302.333,455.878L302.333,457.318L296.789,457.318Z" style="fill:rgb(80,80,80);"/>
            </g>
            <g transform="matrix(12.8622,0,0,15.7267,-3486.57,-6442.87)">
                <path d="M305.201,457.486C304.729,457.486 304.293,457.366 303.893,457.126C303.493,456.886 303.173,456.538 302.933,456.082C302.693,455.626 302.573,455.078 302.573,454.438L302.573,454.246C302.573,453.614 302.689,453.07 302.921,452.614C303.153,452.158 303.463,451.808 303.851,451.564C304.239,451.32 304.665,451.198 305.129,451.198C305.553,451.198 305.895,451.27 306.155,451.414C306.415,451.558 306.621,451.782 306.773,452.086L306.989,452.086L306.989,451.366L308.501,451.366L308.501,455.518C308.501,455.758 308.609,455.878 308.825,455.878L309.053,455.878L309.053,457.318L308.021,457.318C307.749,457.318 307.527,457.236 307.355,457.072C307.183,456.908 307.097,456.702 307.097,456.454L306.881,456.454C306.729,456.822 306.507,457.086 306.215,457.246C305.923,457.406 305.585,457.486 305.201,457.486ZM305.537,456.046C305.977,456.046 306.329,455.9 306.593,455.608C306.857,455.316 306.989,454.918 306.989,454.414L306.989,454.27C306.989,453.766 306.857,453.368 306.593,453.076C306.329,452.784 305.977,452.638 305.537,452.638C305.097,452.638 304.745,452.784 304.481,453.076C304.217,453.368 304.085,453.766 304.085,454.27L304.085,454.414C304.085,454.918 304.217,455.316 304.481,455.608C304.745,455.9 305.097,456.046 305.537,456.046Z" style="fill:rgb(80,80,80);"/>
            </g>
            <g transform="matrix(12.8622,0,0,15.7267,-3482.57,-6442.87)">
                <path d="M311.849,457.486C311.361,457.486 310.921,457.368 310.529,457.132C310.137,456.896 309.825,456.552 309.593,456.1C309.361,455.648 309.245,455.098 309.245,454.45L309.245,454.234C309.245,453.594 309.367,453.048 309.611,452.596C309.855,452.144 310.179,451.798 310.583,451.558C310.987,451.318 311.429,451.198 311.909,451.198C312.389,451.198 312.771,451.288 313.055,451.468C313.339,451.648 313.557,451.902 313.709,452.23L313.925,452.23L313.925,448.918L315.437,448.918L315.437,457.318L313.925,457.318L313.925,456.454L313.709,456.454C313.589,456.718 313.391,456.956 313.115,457.168C312.839,457.38 312.417,457.486 311.849,457.486ZM312.341,456.046C312.813,456.046 313.195,455.896 313.487,455.596C313.779,455.296 313.925,454.902 313.925,454.414L313.925,454.27C313.925,453.782 313.779,453.388 313.487,453.088C313.195,452.788 312.813,452.638 312.341,452.638C311.877,452.638 311.497,452.786 311.201,453.082C310.905,453.378 310.757,453.774 310.757,454.27L310.757,454.414C310.757,454.91 310.905,455.306 311.201,455.602C311.497,455.898 311.877,456.046 312.341,456.046Z" style="fill:rgb(80,80,80);"/>
            </g>
            <g transform="matrix(12.8622,-8.88178e-16,0,15.7267,-3478.18,-6442.87)">
                <path d="M319.073,457.486C318.481,457.486 317.957,457.36 317.501,457.108C317.045,456.856 316.689,456.494 316.433,456.022C316.177,455.55 316.049,454.982 316.049,454.318L316.049,454.246C316.049,453.638 316.185,453.106 316.457,452.65C316.729,452.194 317.091,451.838 317.543,451.582C317.995,451.326 318.497,451.198 319.049,451.198C319.561,451.198 320.001,451.286 320.369,451.462C320.737,451.638 321.039,451.866 321.275,452.146C321.511,452.426 321.687,452.732 321.803,453.064C321.919,453.396 321.977,453.718 321.977,454.03L321.977,454.834L317.609,454.834C317.625,455.186 317.773,455.476 318.053,455.704C318.333,455.932 318.665,456.046 319.049,456.046C319.425,456.046 319.715,455.978 319.919,455.842C320.123,455.706 320.265,455.55 320.345,455.374L321.641,456.094C321.553,456.294 321.407,456.502 321.203,456.718C320.999,456.934 320.725,457.116 320.381,457.264C320.037,457.412 319.601,457.486 319.073,457.486ZM317.633,453.538L320.441,453.538C320.393,453.258 320.243,453.026 319.991,452.842C319.739,452.658 319.421,452.566 319.037,452.566C318.661,452.566 318.351,452.664 318.107,452.86C317.863,453.056 317.705,453.282 317.633,453.538Z" style="fill:rgb(80,80,80);"/>
            </g>
        </g>
    </g>
</svg>
